# Blender v2.79 (sub 0) OBJ File: ''
# www.blender.org
mtllib untitled.mtl
o Mobile_Car_A_Mesh_Untitled
v -0.177985 0.007680 -0.037557
v -0.178732 0.009094 -0.045739
v -0.179252 0.001858 -0.065732
v -0.179401 0.010020 -0.067369
v -0.178883 0.010146 -0.073086
v -0.178858 0.007902 -0.039723
v -0.179155 0.002216 -0.038219
v -0.177106 0.013316 -0.053344
v -0.177441 0.013680 -0.065892
v -0.178205 0.010643 -0.073193
v -0.170948 0.014417 -0.065325
v -0.170948 0.011219 -0.073601
v -0.176116 0.013969 -0.053504
v -0.176153 0.014333 -0.065609
v -0.176581 0.011374 -0.073204
v -0.177861 0.009295 -0.045555
v -0.177824 0.008244 -0.039501
v -0.175757 0.007523 -0.036389
v -0.178522 0.010195 -0.076526
v -0.176332 0.010853 -0.077161
v -0.178240 0.005079 -0.036102
v -0.179570 0.005474 -0.046937
v -0.179548 0.006065 -0.065791
v -0.179548 0.006399 -0.071303
v -0.179018 0.005236 -0.038222
v -0.175620 0.005071 -0.035498
v -0.179570 0.002067 -0.040703
v -0.179570 0.005305 -0.040749
v -0.179570 0.000156 -0.045196
v -0.179252 0.000198 -0.067489
v -0.178237 0.004253 -0.078043
v -0.178341 0.006216 -0.077968
v -0.179022 0.006974 -0.076712
v -0.175365 0.006974 -0.077311
v -0.175322 0.004253 -0.078170
v -0.175387 0.006216 -0.078094
v -0.175328 0.003428 -0.077030
v -0.179570 0.001059 -0.041373
v -0.179252 -0.000000 -0.068828
v -0.179728 0.001862 -0.058425
v -0.179638 0.009649 -0.058458
v -0.179920 0.005831 -0.058344
v -0.177379 0.013670 -0.059987
v -0.176135 0.014324 -0.059987
v -0.178940 0.009461 -0.050127
v -0.178869 0.009481 -0.049215
v -0.178394 0.010553 -0.049843
v -0.178536 0.010197 -0.049310
v -0.180733 0.009392 -0.050790
v -0.180413 0.009305 -0.049822
v -0.180564 0.010417 -0.050790
v -0.180244 0.010296 -0.049894
v -0.179884 0.010376 -0.049617
v -0.179617 0.010704 -0.050433
v -0.179877 0.009236 -0.049416
v -0.179953 0.009218 -0.050458
v -0.163912 0.007680 -0.037557
v -0.163039 0.007902 -0.039723
v -0.162879 0.005236 -0.038222
v -0.163656 0.005079 -0.036102
v -0.163165 0.009094 -0.045739
v -0.162259 0.009649 -0.058458
v -0.161976 0.005831 -0.058344
v -0.162327 0.005474 -0.046937
v -0.162496 0.010020 -0.067369
v -0.163014 0.010146 -0.073086
v -0.162348 0.006399 -0.071303
v -0.162348 0.006065 -0.065791
v -0.163374 0.010195 -0.076526
v -0.162874 0.006974 -0.076712
v -0.162327 0.005305 -0.040749
v -0.162327 0.002067 -0.040703
v -0.164790 0.013316 -0.053344
v -0.164518 0.013670 -0.059987
v -0.164455 0.013680 -0.065892
v -0.163692 0.010643 -0.073193
v -0.164036 0.009295 -0.045555
v -0.165781 0.013969 -0.053504
v -0.165762 0.014324 -0.059987
v -0.165743 0.014333 -0.065609
v -0.165315 0.011374 -0.073204
v -0.164073 0.008244 -0.039501
v -0.166140 0.007523 -0.036389
v -0.163857 0.002452 -0.036524
v -0.166413 0.002728 -0.035919
v -0.166276 0.005071 -0.035498
v -0.170948 0.009498 -0.044435
v -0.170948 0.014055 -0.052890
v -0.170948 0.014409 -0.059987
v -0.170948 0.008800 -0.039103
v -0.170948 0.007537 -0.035902
v -0.170948 0.005079 -0.035011
v -0.165564 0.010853 -0.077161
v -0.170948 0.010853 -0.077261
v -0.162645 0.001858 -0.065732
v -0.162645 0.002203 -0.071834
v -0.162327 0.001868 -0.046786
v -0.162327 0.000156 -0.042658
v -0.162645 0.001125 -0.071431
v -0.162645 0.000226 -0.070115
v -0.162645 -0.000000 -0.068828
v -0.162645 0.000198 -0.067489
v -0.163556 0.006216 -0.077968
v -0.163660 0.004253 -0.078043
v -0.166531 0.006974 -0.077311
v -0.170948 0.006974 -0.077502
v -0.166510 0.006216 -0.078094
v -0.170948 0.006216 -0.078194
v -0.166575 0.004253 -0.078170
v -0.170948 0.004253 -0.078270
v -0.161164 0.009392 -0.050790
v -0.161483 0.009305 -0.049822
v -0.161653 0.010296 -0.049894
v -0.161333 0.010417 -0.050790
v -0.162956 0.009461 -0.050127
v -0.163028 0.009481 -0.049215
v -0.162019 0.009236 -0.049416
v -0.161944 0.009218 -0.050458
v -0.163360 0.010197 -0.049310
v -0.162012 0.010376 -0.049617
v -0.163502 0.010553 -0.049843
v -0.162280 0.010704 -0.050433
v -0.162742 0.002216 -0.038219
v -0.162989 0.003428 -0.076904
v -0.162327 0.000909 -0.046246
v -0.162327 0.000156 -0.045196
v -0.162327 -0.000074 -0.043927
v -0.162645 0.000929 -0.066300
v -0.166568 0.003428 -0.077030
v -0.162169 0.001862 -0.058425
v -0.162327 0.001059 -0.041373
v -0.178040 0.002452 -0.036524
v -0.179570 0.001868 -0.046786
v -0.179252 0.002203 -0.071834
v -0.175484 0.002728 -0.035919
v -0.179570 0.000156 -0.042658
v -0.179252 0.000226 -0.070115
v -0.178919 0.003428 -0.076904
v -0.170948 0.003428 -0.077131
v -0.179570 0.000909 -0.046246
v -0.179570 -0.000074 -0.043927
v -0.179252 0.000929 -0.066300
v -0.179252 0.001125 -0.071431
v -0.170948 0.002728 -0.035432
v -0.179121 0.008254 -0.046017
v -0.179570 0.006732 -0.041389
v -0.162776 0.008254 -0.046017
v -0.162327 0.006732 -0.041389
vt 0.161947 0.862751
vt 0.163771 0.871153
vt 0.130906 0.869684
vt 0.131206 0.862009
vt 0.114377 0.802888
vt 0.270401 0.805934
vt 0.118703 0.799051
vt 0.378219 0.809641
vt 0.436689 0.810411
vt 0.415950 0.789211
vt 0.357720 0.786930
vt 0.477762 0.811209
vt 0.476200 0.793082
vt 0.036311 0.768587
vt 0.036576 0.781186
vt 0.066367 0.781166
vt 0.067381 0.765164
vt 0.215133 0.830052
vt 0.275107 0.832321
vt 0.350400 0.831115
vt 0.436050 0.813159
vt 0.329252 0.843291
vt 0.275167 0.837331
vt 0.272486 0.839779
vt 0.328655 0.846336
vt 0.373569 0.848643
vt 0.373569 0.844769
vt 0.413549 0.844839
vt 0.411536 0.848768
vt 0.466584 0.849035
vt 0.458140 0.842552
vt 0.228498 0.838398
vt 0.227970 0.841661
vt 0.198979 0.843615
vt 0.186925 0.851220
vt 0.098766 0.862009
vt 0.099032 0.850352
vt 0.131195 0.851146
vt 0.264238 0.867707
vt 0.328017 0.867709
vt 0.373569 0.867709
vt 0.411605 0.867709
vt 0.470115 0.867709
vt 0.225314 0.867705
vt 0.186767 0.868087
vt 0.131280 0.827832
vt 0.157329 0.827832
vt 0.157158 0.853196
vt 0.495944 0.854571
vt 0.488168 0.838748
vt 0.496659 0.867709
vt 0.098825 0.869708
vt 0.355677 0.764174
vt 0.270072 0.764037
vt 0.269240 0.784811
vt 0.422254 0.766199
vt 0.479418 0.772270
vt 0.055392 0.794630
vt 0.076577 0.790326
vt 0.099032 0.827832
vt 0.134448 0.781832
vt 0.134275 0.764055
vt 0.126886 0.758462
vt 0.116306 0.755243
vt 0.103029 0.754201
vt 0.089222 0.754692
vt 0.075494 0.759117
vt 0.416030 0.760733
vt 0.405247 0.756184
vt 0.389173 0.754512
vt 0.376367 0.755156
vt 0.363919 0.758147
vt 0.009063 0.871976
vt 0.051976 0.872554
vt 0.043515 0.868751
vt 0.018264 0.868172
vt 0.081740 0.868453
vt 0.087391 0.857545
vt 0.050863 0.852148
vt 0.087391 0.827501
vt 0.050863 0.827501
vt 0.040175 0.852270
vt 0.040175 0.827501
vt 0.018264 0.851904
vt 0.018264 0.827501
vt 0.009063 0.851942
vt 0.009063 0.827501
vt 0.428497 0.821827
vt 0.431991 0.821349
vt 0.433842 0.826762
vt 0.430348 0.827421
vt 0.448073 0.822202
vt 0.448851 0.822311
vt 0.437841 0.820973
vt 0.437015 0.820875
vt 0.452482 0.826221
vt 0.437766 0.827198
vt 0.454034 0.828162
vt 0.440683 0.828986
vt 0.479645 0.822082
vt 0.467286 0.820599
vt 0.471386 0.829666
vt 0.486308 0.828745
vt 0.457765 0.821663
vt 0.459834 0.827917
vt 0.161947 0.862751
vt 0.131206 0.862009
vt 0.130906 0.869684
vt 0.163771 0.871153
vt 0.114377 0.802888
vt 0.118703 0.799051
vt 0.270401 0.805934
vt 0.378219 0.809641
vt 0.357720 0.786930
vt 0.415950 0.789211
vt 0.436689 0.810411
vt 0.476200 0.793082
vt 0.477762 0.811209
vt 0.036311 0.768587
vt 0.067381 0.765164
vt 0.066367 0.781166
vt 0.036576 0.781186
vt 0.215133 0.830052
vt 0.275107 0.832321
vt 0.436050 0.813159
vt 0.350400 0.831115
vt 0.329252 0.843291
vt 0.328655 0.846336
vt 0.272486 0.839779
vt 0.275167 0.837331
vt 0.373569 0.844769
vt 0.373569 0.848643
vt 0.413549 0.844839
vt 0.458140 0.842552
vt 0.466584 0.849035
vt 0.411536 0.848768
vt 0.228498 0.838398
vt 0.227944 0.841639
vt 0.198979 0.843615
vt 0.186925 0.851220
vt 0.098766 0.862009
vt 0.131195 0.851146
vt 0.099032 0.850352
vt 0.157158 0.853196
vt 0.488168 0.838748
vt 0.495944 0.854571
vt 0.098825 0.869708
vt 0.269240 0.784811
vt 0.270072 0.764037
vt 0.355677 0.764174
vt 0.422254 0.766199
vt 0.479418 0.772270
vt 0.076457 0.790263
vt 0.055153 0.794503
vt 0.134275 0.764055
vt 0.134448 0.781832
vt 0.075494 0.759117
vt 0.089222 0.754692
vt 0.103029 0.754201
vt 0.116306 0.755243
vt 0.126886 0.758462
vt 0.363919 0.758147
vt 0.376367 0.755156
vt 0.389173 0.754512
vt 0.405247 0.756184
vt 0.416030 0.760733
vt 0.009063 0.871976
vt 0.018264 0.868172
vt 0.043515 0.868751
vt 0.051976 0.872554
vt 0.081740 0.868453
vt 0.050863 0.852148
vt 0.087391 0.857545
vt 0.040175 0.852270
vt 0.018264 0.851904
vt 0.009063 0.851942
vt 0.428497 0.821827
vt 0.430348 0.827421
vt 0.433842 0.826762
vt 0.431991 0.821349
vt 0.448073 0.822202
vt 0.437015 0.820875
vt 0.437841 0.820973
vt 0.448851 0.822311
vt 0.437766 0.827198
vt 0.452482 0.826221
vt 0.454034 0.828162
vt 0.440683 0.828986
vt 0.479645 0.822082
vt 0.486308 0.828745
vt 0.471386 0.829666
vt 0.467286 0.820599
vt 0.459834 0.827917
vt 0.457765 0.821663
vt 0.092987 0.822077
vt 0.105352 0.813516
vt 0.092987 0.805443
vt 0.009147 0.818192
vt 0.010558 0.820827
vt 0.010558 0.806692
vt 0.009147 0.809328
vt 0.034515 0.822556
vt 0.061686 0.822567
vt 0.061686 0.804952
vt 0.034515 0.804963
vt 0.020315 0.822512
vt 0.020315 0.805007
vt 0.014515 0.805543
vt 0.014515 0.821977
vt 0.021879 0.806811
vt 0.024878 0.806811
vt 0.024878 0.805883
vt 0.021879 0.805886
vt 0.034515 0.805871
vt 0.033254 0.805873
vt 0.033254 0.806811
vt 0.034518 0.806811
vt 0.030803 0.805876
vt 0.027840 0.805879
vt 0.027840 0.806811
vt 0.030803 0.806811
vt 0.020315 0.805888
vt 0.020319 0.806811
vt 0.091747 0.806053
vt 0.088621 0.806053
vt 0.088621 0.806984
vt 0.091747 0.806984
vt 0.083321 0.806984
vt 0.085971 0.806984
vt 0.085971 0.806053
vt 0.083321 0.806053
vt 0.080807 0.806053
vt 0.079425 0.806053
vt 0.079412 0.806984
vt 0.080807 0.806984
vt 0.092987 0.806053
vt 0.092957 0.806984
vt 0.105118 0.809000
vt 0.104824 0.805808
vt 0.104824 0.821733
vt 0.105118 0.818032
vt 0.079425 0.822077
vt 0.079425 0.805443
vt 0.008010 0.813516
vn -0.5261 0.6959 0.4888
vn -0.7309 0.6357 0.2485
vn -0.9420 0.1432 0.3034
vn -0.6232 0.1269 0.7717
vn -0.6824 0.7055 0.1912
vn -0.9563 0.2915 0.0213
vn -0.9585 0.2815 0.0450
vn -0.9552 0.2916 -0.0514
vn -0.8568 0.5109 -0.0706
vn -0.9983 0.0247 -0.0533
vn -0.9996 -0.0149 -0.0251
vn -0.6543 0.5145 -0.5543
vn -0.8251 0.2187 -0.5210
vn -0.9468 -0.0191 0.3212
vn -0.9934 0.0446 0.1052
vn -0.9981 0.0009 0.0619
vn -0.6797 0.7112 0.1793
vn -0.6917 0.7214 0.0340
vn -0.6527 0.7469 -0.1271
vn -0.5296 0.8376 -0.1342
vn -0.1933 0.9279 0.3187
vn -0.2747 0.9334 0.2310
vn -0.2488 0.9681 0.0316
vn -0.2138 0.9630 -0.1643
vn -0.2129 0.9450 -0.2482
vn -0.2098 0.9547 0.2110
vn -0.1666 0.7033 0.6911
vn -0.5794 -0.1752 0.7960
vn -0.1560 -0.1826 0.9707
vn -0.1603 0.0770 0.9841
vn 0.0000 0.9519 0.3064
vn 0.0000 0.9590 0.2833
vn 0.0000 0.9996 0.0271
vn -0.0000 0.9844 -0.1760
vn 0.0000 0.9740 -0.2267
vn -0.0000 0.9714 0.2374
vn -0.0000 0.6842 0.7293
vn 0.0000 0.0830 0.9965
vn -0.2071 0.6542 -0.7274
vn 0.0000 0.6853 -0.7283
vn -0.9983 -0.0525 -0.0261
vn -0.9988 -0.0474 -0.0154
vn -0.9999 0.0127 -0.0085
vn -0.9984 -0.0470 -0.0299
vn -0.9666 -0.0299 -0.2545
vn -0.9815 0.1844 0.0513
vn 0.0000 -0.1764 0.9843
vn -0.9974 0.0682 0.0209
vn -1.0000 0.0002 0.0049
vn -1.0000 0.0000 0.0000
vn -0.4519 0.3713 -0.8111
vn -0.5588 0.0026 -0.8293
vn -0.0811 0.4219 -0.9030
vn -0.0000 0.3920 -0.9200
vn -0.0333 0.4043 -0.9140
vn -0.0000 0.3778 -0.9259
vn -0.0327 0.0374 -0.9988
vn 0.0000 0.0384 -0.9993
vn -0.0219 -0.8053 -0.5925
vn -0.0193 -0.8100 -0.5862
vn -0.0128 -0.9078 -0.4193
vn -0.0135 -0.9230 -0.3846
vn 0.0000 -0.8102 -0.5862
vn 0.0000 -0.9086 -0.4178
vn -0.9265 0.1681 0.3367
vn -0.7896 0.1689 0.5899
vn -0.6915 0.5331 0.4874
vn -0.7951 0.4947 0.3507
vn 0.2346 -0.9721 0.0015
vn 0.2357 -0.9718 0.0030
vn 0.1146 -0.9934 0.0099
vn -0.0339 -0.9994 -0.0018
vn -0.2074 0.1947 0.9587
vn -0.1025 0.5933 0.7985
vn -0.3615 0.6184 0.6977
vn -0.4161 0.1547 0.8961
vn -0.0298 0.8738 0.4853
vn -0.2225 0.9266 0.3030
vn 0.3755 -0.0240 -0.9265
vn 0.3531 -0.0618 -0.9335
vn 0.3799 -0.0371 -0.9243
vn 0.4362 0.0157 -0.8997
vn -0.1719 -0.9851 0.0102
vn -0.2105 -0.9774 -0.0188
vn 0.3785 -0.0626 -0.9235
vn 0.3727 -0.0661 -0.9256
vn 0.5261 0.6959 0.4888
vn 0.6232 0.1269 0.7717
vn 0.9420 0.1432 0.3034
vn 0.7309 0.6357 0.2485
vn 0.6824 0.7055 0.1912
vn 0.9585 0.2815 0.0450
vn 0.9563 0.2915 0.0213
vn 0.9552 0.2916 -0.0514
vn 0.9996 -0.0149 -0.0251
vn 0.9983 0.0244 -0.0536
vn 0.8568 0.5109 -0.0706
vn 0.8254 0.2174 -0.5210
vn 0.6543 0.5145 -0.5543
vn 0.9468 -0.0191 0.3212
vn 0.9981 0.0009 0.0619
vn 0.9934 0.0446 0.1052
vn 0.6797 0.7112 0.1793
vn 0.6917 0.7214 0.0340
vn 0.5296 0.8376 -0.1342
vn 0.6527 0.7469 -0.1271
vn 0.2747 0.9334 0.2310
vn 0.1933 0.9279 0.3187
vn 0.2488 0.9681 0.0316
vn 0.2129 0.9450 -0.2482
vn 0.2138 0.9630 -0.1643
vn 0.2098 0.9547 0.2110
vn 0.1666 0.7033 0.6911
vn 0.5794 -0.1752 0.7960
vn 0.1603 0.0770 0.9841
vn 0.1560 -0.1826 0.9707
vn 0.2071 0.6542 -0.7274
vn 0.9999 0.0127 -0.0085
vn 0.9988 -0.0474 -0.0154
vn 0.9983 -0.0524 -0.0261
vn 0.9984 -0.0469 -0.0307
vn 0.9668 -0.0315 -0.2535
vn 0.9815 0.1844 0.0513
vn 1.0000 0.0002 0.0049
vn 0.9974 0.0683 0.0209
vn 1.0000 -0.0000 0.0000
vn 0.5621 0.0023 -0.8270
vn 0.4530 0.3706 -0.8109
vn 0.0811 0.4219 -0.9030
vn 0.0333 0.4043 -0.9140
vn 0.0327 0.0374 -0.9988
vn 0.0219 -0.8054 -0.5924
vn 0.0136 -0.9228 -0.3850
vn 0.0128 -0.9078 -0.4193
vn 0.0193 -0.8100 -0.5862
vn 0.9265 0.1681 0.3367
vn 0.7951 0.4948 0.3507
vn 0.6915 0.5331 0.4874
vn 0.7896 0.1689 0.5899
vn -0.2346 -0.9721 0.0015
vn 0.0339 -0.9994 -0.0018
vn -0.1146 -0.9934 0.0099
vn -0.2357 -0.9718 0.0030
vn -0.2346 -0.9721 0.0016
vn 0.2074 0.1947 0.9587
vn 0.4161 0.1547 0.8961
vn 0.3615 0.6184 0.6977
vn 0.1025 0.5933 0.7984
vn 0.0298 0.8738 0.4853
vn 0.2225 0.9266 0.3030
vn -0.3755 -0.0240 -0.9265
vn -0.4362 0.0156 -0.8997
vn -0.3799 -0.0371 -0.9243
vn -0.3531 -0.0618 -0.9335
vn 0.1719 -0.9851 0.0102
vn 0.2105 -0.9774 -0.0188
vn -0.3727 -0.0661 -0.9256
vn -0.3785 -0.0626 -0.9235
vn -0.0044 -0.9729 -0.2311
vn 0.0044 -0.9729 -0.2311
vn -0.0000 -0.9160 0.4011
vn 0.0000 -0.9858 0.1680
vn 0.0000 -1.0000 0.0006
vn 0.0000 -0.9982 0.0597
vn 0.0000 -0.9961 0.0883
vn 0.0000 -0.6977 0.7164
vn -0.0000 -0.9226 0.3858
vn 0.0000 -0.4905 -0.8714
vn -0.0000 -0.6673 -0.7448
vn -0.0000 -0.9207 -0.3902
vn 0.0000 -1.0000 -0.0000
vn 0.0000 -0.5534 0.8329
vn -0.0000 -0.6166 -0.7873
vn 0.0000 -0.9263 -0.3768
vn -0.0000 -0.9397 0.3421
vn -0.0000 -0.9999 -0.0134
vn 0.0000 -0.7063 0.7079
vn 0.0000 -0.5221 0.8529
vn 0.0000 -0.3496 -0.9369
usemtl 07_-_Default
s 1
f 1/1/1 6/2/2 25/3/3
f 25/3/3 21/4/4 1/1/1
f 2/5/5 41/6/6 145/7/7
f 4/8/8 5/9/9 24/10/10
f 24/10/10 23/11/11 4/8/8
f 5/9/9 19/12/12 33/13/13
f 33/13/13 24/10/10 5/9/9
f 7/14/14 25/15/3 28/16/15
f 28/16/15 27/17/16 7/14/14
f 8/18/17 43/19/18 41/6/6
f 41/6/6 2/5/5 8/18/17
f 4/8/8 9/20/19 10/21/20
f 10/21/20 5/9/9 4/8/8
f 8/22/17 2/23/5 16/24/21
f 16/24/21 13/25/22 8/22/17
f 8/22/17 13/25/22 44/26/23
f 44/26/23 43/27/18 8/22/17
f 9/28/19 14/29/24 15/30/25
f 15/30/25 10/31/20 9/28/19
f 6/32/2 17/33/26 16/24/21
f 16/24/21 2/23/5 6/32/2
f 1/34/1 18/35/27 17/33/26
f 17/33/26 6/32/2 1/34/1
f 132/36/28 135/37/29 26/38/30
f 26/38/30 21/4/4 132/36/28
f 13/25/22 16/24/21 87/39/31
f 87/39/31 88/40/32 13/25/22
f 44/26/23 89/41/33 11/42/34
f 11/42/34 14/29/24 44/26/23
f 12/43/35 15/30/25 14/29/24
f 14/29/24 11/42/34 12/43/35
f 87/39/31 16/24/21 17/33/26
f 17/33/26 90/44/36 87/39/31
f 90/44/36 17/33/26 18/35/27
f 18/35/27 91/45/37 90/44/36
f 26/38/30 92/46/38 91/47/37
f 91/47/37 18/48/27 26/38/30
f 5/9/9 10/21/20 19/12/12
f 10/31/20 15/30/25 20/49/39
f 20/49/39 19/50/12 10/31/20
f 15/30/25 12/43/35 94/51/40
f 94/51/40 20/49/39 15/30/25
f 7/52/14 132/36/28 21/4/4
f 21/4/4 25/3/3 7/52/14
f 23/11/11 3/53/41 40/54/42
f 40/54/42 42/55/43 23/11/11
f 134/56/44 3/53/41 23/11/11
f 23/11/11 24/10/10 134/56/44
f 138/57/45 134/56/44 24/10/10
f 24/10/10 33/13/13 138/57/45
f 25/15/3 6/58/2 146/59/46
f 146/59/46 28/16/15 25/15/3
f 18/48/27 1/1/1 21/4/4
f 21/4/4 26/38/30 18/48/27
f 135/37/29 144/60/47 92/46/38
f 92/46/38 26/38/30 135/37/29
f 28/16/15 22/61/48 133/62/49
f 133/62/49 27/17/16 28/16/15
f 27/17/16 133/62/49 140/63/50
f 27/17/16 140/63/50 29/64/50
f 141/65/50 136/66/50 38/67/50
f 29/64/50 141/65/50 38/67/50
f 27/17/16 29/64/50 38/67/50
f 2/5/5 145/7/7 146/59/46
f 146/59/46 6/58/2 2/5/5
f 3/53/41 134/56/44 143/68/50
f 3/53/41 143/68/50 137/69/50
f 39/70/50 30/71/50 142/72/50
f 137/69/50 39/70/50 142/72/50
f 3/53/41 137/69/50 142/72/50
f 138/73/45 33/74/13 32/75/51
f 32/75/51 31/76/52 138/73/45
f 19/77/12 20/78/39 34/79/53
f 34/79/53 33/74/13 19/77/12
f 20/78/39 94/80/40 106/81/54
f 106/81/54 34/79/53 20/78/39
f 32/75/51 33/74/13 34/79/53
f 34/79/53 36/82/55 32/75/51
f 36/82/55 34/79/53 106/81/54
f 106/81/54 108/83/56 36/82/55
f 31/76/52 32/75/51 36/82/55
f 36/82/55 35/84/57 31/76/52
f 35/84/57 36/82/55 108/83/56
f 108/83/56 110/85/58 35/84/57
f 31/76/59 35/84/60 37/86/61
f 37/86/61 138/73/62 31/76/59
f 35/84/60 110/85/63 139/87/64
f 139/87/64 37/86/61 35/84/60
f 41/6/6 4/8/8 23/11/11
f 23/11/11 42/55/43 41/6/6
f 40/54/42 133/62/49 22/61/48
f 22/61/48 42/55/43 40/54/42
f 14/29/24 9/28/19 43/27/18
f 43/27/18 44/26/23 14/29/24
f 13/25/22 88/40/32 89/41/33
f 89/41/33 44/26/23 13/25/22
f 9/20/19 4/8/8 41/6/6
f 41/6/6 43/19/18 9/20/19
f 49/88/65 50/89/66 52/90/67
f 52/90/67 51/91/68 49/88/65
f 45/92/69 46/93/70 55/94/71
f 55/94/71 56/95/72 45/92/69
f 46/93/73 48/96/74 53/97/75
f 53/97/75 55/94/76 46/93/73
f 47/98/77 54/99/78 53/97/75
f 53/97/75 48/96/74 47/98/77
f 45/100/79 56/101/80 54/102/81
f 54/102/81 47/103/82 45/100/79
f 54/99/78 51/91/68 52/90/67
f 52/90/67 53/97/75 54/99/78
f 50/89/83 49/88/84 56/95/72
f 56/95/72 55/94/71 50/89/83
f 53/97/75 52/90/67 50/89/66
f 50/89/66 55/94/76 53/97/75
f 56/101/80 49/104/85 51/105/86
f 51/105/86 54/102/81 56/101/80
f 57/106/87 60/107/88 59/108/89
f 59/108/89 58/109/90 57/106/87
f 61/110/91 147/111/92 62/112/93
f 65/113/94 68/114/95 67/115/96
f 67/115/96 66/116/97 65/113/94
f 66/116/97 67/115/96 70/117/98
f 70/117/98 69/118/99 66/116/97
f 123/119/100 72/120/101 71/121/102
f 71/121/102 59/122/89 123/119/100
f 73/123/103 61/110/91 62/112/93
f 62/112/93 74/124/104 73/123/103
f 65/113/94 66/116/97 76/125/105
f 76/125/105 75/126/106 65/113/94
f 73/127/103 78/128/107 77/129/108
f 77/129/108 61/130/91 73/127/103
f 73/127/103 74/131/104 79/132/109
f 79/132/109 78/128/107 73/127/103
f 75/133/106 76/134/105 81/135/110
f 81/135/110 80/136/111 75/133/106
f 58/137/90 61/130/91 77/129/108
f 77/129/108 82/138/112 58/137/90
f 57/139/87 58/137/90 82/138/112
f 82/138/112 83/140/113 57/139/87
f 84/141/114 60/107/88 86/142/115
f 86/142/115 85/143/116 84/141/114
f 78/128/107 88/40/32 87/39/31
f 87/39/31 77/129/108 78/128/107
f 79/132/109 80/136/111 11/42/34
f 11/42/34 89/41/33 79/132/109
f 12/43/35 11/42/34 80/136/111
f 80/136/111 81/135/110 12/43/35
f 87/39/31 90/44/36 82/138/112
f 82/138/112 77/129/108 87/39/31
f 90/44/36 91/45/37 83/140/113
f 83/140/113 82/138/112 90/44/36
f 86/142/115 83/144/113 91/47/37
f 91/47/37 92/46/38 86/142/115
f 66/116/97 69/118/99 76/125/105
f 76/134/105 69/145/99 93/146/117
f 93/146/117 81/135/110 76/134/105
f 81/135/110 93/146/117 94/51/40
f 94/51/40 12/43/35 81/135/110
f 123/147/100 59/108/89 60/107/88
f 60/107/88 84/141/114 123/147/100
f 68/114/95 63/148/118 130/149/119
f 130/149/119 95/150/120 68/114/95
f 96/151/121 67/115/96 68/114/95
f 68/114/95 95/150/120 96/151/121
f 124/152/122 70/117/98 67/115/96
f 67/115/96 96/151/121 124/152/122
f 59/122/89 71/121/102 148/153/123
f 148/153/123 58/154/90 59/122/89
f 83/144/113 86/142/115 60/107/88
f 60/107/88 57/106/87 83/144/113
f 85/143/116 86/142/115 92/46/38
f 92/46/38 144/60/47 85/143/116
f 71/121/102 72/120/101 97/155/124
f 97/155/124 64/156/125 71/121/102
f 131/157/126 98/158/126 127/159/126
f 131/157/126 127/159/126 126/160/126
f 72/120/101 131/157/126 126/160/126
f 72/120/101 126/160/126 125/161/126
f 72/120/101 125/161/126 97/155/124
f 148/153/123 147/111/92 61/110/91
f 61/110/91 58/154/90 148/153/123
f 128/162/126 102/163/126 101/164/126
f 128/162/126 101/164/126 100/165/126
f 95/150/120 128/162/126 100/165/126
f 95/150/120 100/165/126 99/166/126
f 95/150/120 99/166/126 96/151/121
f 124/167/122 104/168/127 103/169/128
f 103/169/128 70/170/98 124/167/122
f 69/171/99 70/170/98 105/172/129
f 105/172/129 93/173/117 69/171/99
f 93/173/117 105/172/129 106/81/54
f 106/81/54 94/80/40 93/173/117
f 103/169/128 107/174/130 105/172/129
f 105/172/129 70/170/98 103/169/128
f 107/174/130 108/83/56 106/81/54
f 106/81/54 105/172/129 107/174/130
f 104/168/127 109/175/131 107/174/130
f 107/174/130 103/169/128 104/168/127
f 109/175/131 110/85/58 108/83/56
f 108/83/56 107/174/130 109/175/131
f 104/168/132 124/167/133 129/176/134
f 129/176/134 109/175/135 104/168/132
f 109/175/135 129/176/134 139/87/64
f 139/87/64 110/85/63 109/175/135
f 62/112/93 63/148/118 68/114/95
f 68/114/95 65/113/94 62/112/93
f 130/149/119 63/148/118 64/156/125
f 64/156/125 97/155/124 130/149/119
f 80/136/111 79/132/109 74/131/104
f 74/131/104 75/133/106 80/136/111
f 78/128/107 79/132/109 89/41/33
f 89/41/33 88/40/32 78/128/107
f 75/126/106 74/124/104 62/112/93
f 62/112/93 65/113/94 75/126/106
f 111/177/136 114/178/137 113/179/138
f 113/179/138 112/180/139 111/177/136
f 115/181/140 118/182/141 117/183/142
f 117/183/142 116/184/143 115/181/144
f 116/184/145 117/183/146 120/185/147
f 120/185/147 119/186/148 116/184/145
f 121/187/149 119/186/148 120/185/147
f 120/185/147 122/188/150 121/187/149
f 115/189/151 121/190/152 122/191/153
f 122/191/153 118/192/154 115/189/151
f 122/188/150 120/185/147 113/179/138
f 113/179/138 114/178/137 122/188/150
f 112/180/155 117/183/142 118/182/141
f 118/182/141 111/177/156 112/180/155
f 120/185/147 117/183/146 112/180/139
f 112/180/139 113/179/138 120/185/147
f 118/192/154 122/191/153 114/193/157
f 114/193/157 111/194/158 118/192/154
f 134/195/159 139/196/64 96/197/160
f 135/198/161 132/199/162 84/200/162
f 84/200/162 85/201/161 135/198/161
f 133/202/163 40/203/163 130/204/163
f 130/204/163 97/205/163 133/202/163
f 27/206/164 72/207/164 123/208/165
f 123/208/165 7/209/165 27/206/164
f 145/7/7 22/61/48 28/16/15
f 28/16/15 146/59/46 145/7/7
f 71/121/102 64/156/125 147/111/92
f 147/111/92 148/153/123 71/121/102
f 41/6/6 42/55/43 22/61/48
f 22/61/48 145/7/7 41/6/6
f 64/156/125 63/148/118 62/112/93
f 62/112/93 147/111/92 64/156/125
f 38/210/166 136/211/167 98/212/167
f 98/212/167 131/213/166 38/210/166
f 97/214/168 125/215/169 140/216/169
f 140/216/169 133/217/168 97/214/168
f 126/218/170 127/219/171 141/220/171
f 141/220/171 29/221/170 126/218/170
f 29/221/170 140/216/169 125/215/169
f 125/215/169 126/218/170 29/221/170
f 131/213/166 72/222/172 27/223/172
f 27/223/172 38/210/166 131/213/166
f 98/212/167 136/211/167 141/220/171
f 141/220/171 127/219/171 98/212/167
f 99/224/173 100/225/174 137/226/174
f 137/226/174 143/227/173 99/224/173
f 30/228/175 39/229/176 101/230/176
f 101/230/176 102/231/175 30/228/175
f 128/232/177 95/233/178 3/234/178
f 3/234/178 142/235/177 128/232/177
f 102/231/175 128/232/177 142/235/177
f 142/235/177 30/228/175 102/231/175
f 100/225/174 101/230/176 39/229/176
f 39/229/176 137/226/174 100/225/174
f 96/236/179 99/224/173 143/227/173
f 143/227/173 134/237/179 96/236/179
f 129/238/134 124/239/133 96/197/160
f 139/196/64 129/238/134 96/197/160
f 134/195/159 138/240/62 37/241/61
f 134/195/159 37/241/61 139/196/64
f 3/242/163 95/243/163 130/204/163
f 130/204/163 40/203/163 3/242/163
f 7/209/165 123/208/165 84/200/162
f 84/200/162 132/199/162 7/209/165
f 85/201/161 144/244/171 135/198/161
